<svg xmlns="http://www.w3.org/2000/svg" width="145.016" height="124.493" viewBox="0 0 145.016 124.493">
  <path id="Path_27" data-name="Path 27" d="M121.721,53.277H87.365A15.17,15.17,0,0,1,72.207,38.118a4.051,4.051,0,0,0-4.068-4.068H23.3A23.331,23.331,0,0,0,0,57.345v77.9a23.331,23.331,0,0,0,23.3,23.3h98.425a23.331,23.331,0,0,0,23.3-23.3V76.542A23.305,23.305,0,0,0,121.721,53.277Zm15.159,81.941a15.17,15.17,0,0,1-15.159,15.159H23.3A15.17,15.17,0,0,1,8.137,135.218V57.345A15.17,15.17,0,0,1,23.3,42.187H64.432A23.334,23.334,0,0,0,87.365,61.414h34.355a15.17,15.17,0,0,1,15.159,15.159v58.645Z" transform="translate(0 -34.05)" fill="#272d3b"/>
</svg>
