<svg id="pie-chart" xmlns="http://www.w3.org/2000/svg" width="124.556" height="124.582" viewBox="0 0 124.556 124.582">
  <g id="Group_30" data-name="Group 30">
    <path id="Path_56" data-name="Path 56" d="M107.735,103.177H59.189V54.631A3.516,3.516,0,0,0,55.658,51.1a55.608,55.608,0,1,0,55.608,55.608A3.55,3.55,0,0,0,107.735,103.177ZM55.658,155.254a48.545,48.545,0,0,1-3.531-96.961v48.415a3.516,3.516,0,0,0,3.531,3.531h48.415A48.593,48.593,0,0,1,55.658,155.254Z" transform="translate(-0.05 -37.734)" fill="#272d3b"/>
    <path id="Path_57" data-name="Path 57" d="M309.289,55.425A55.6,55.6,0,0,0,253.681,0a3.516,3.516,0,0,0-3.531,3.531V55.608a3.516,3.516,0,0,0,3.531,3.531h52.077a3.516,3.516,0,0,0,3.531-3.531ZM257.212,52.1V7.219A48.578,48.578,0,0,1,302.1,52.1H257.212Z" transform="translate(-184.733 0)" fill="#272d3b"/>
  </g>
</svg>
