<svg id="settings-1" xmlns="http://www.w3.org/2000/svg" width="120.77" height="124.316" viewBox="0 0 120.77 124.316">
  <g id="Group_34" data-name="Group 34">
    <path id="Path_67" data-name="Path 67" d="M193.374,60.592V3.494a3.494,3.494,0,1,0-6.988,0v57.1a17.744,17.744,0,0,0,0,34.787V120.8a3.494,3.494,0,1,0,6.988,0V95.379a17.744,17.744,0,0,0,0-34.787ZM189.88,88.727a10.741,10.741,0,1,1,10.741-10.741A10.748,10.748,0,0,1,189.88,88.727Z" transform="translate(-129.365)" fill="#272d3b"/>
    <path id="Path_68" data-name="Path 68" d="M28.074,31.292V3.494a3.494,3.494,0,0,0-6.988,0v27.8a17.744,17.744,0,0,0,0,34.787V120.8a3.494,3.494,0,1,0,6.988,0V66.053a17.728,17.728,0,0,0,0-34.761ZM24.58,59.427A10.741,10.741,0,1,1,35.321,48.686,10.748,10.748,0,0,1,24.58,59.427Z" transform="translate(-6.85)" fill="#272d3b"/>
    <path id="Path_69" data-name="Path 69" d="M357.674,31.292V3.494a3.494,3.494,0,0,0-6.988,0v27.8a17.744,17.744,0,0,0,0,34.787v54.742a3.494,3.494,0,0,0,6.988,0V66.053a17.728,17.728,0,0,0,0-34.761ZM354.18,59.427a10.741,10.741,0,1,1,10.741-10.741A10.748,10.748,0,0,1,354.18,59.427Z" transform="translate(-251.14)" fill="#272d3b"/>
  </g>
</svg>
